<mxfile host="app.diagrams.net" agent="Mozilla/5.0 (Macintosh; Intel Mac OS X 10_15_7) AppleWebKit/537.36 (KHTML, like Gecko) Chrome/130.0.0.0 Safari/537.36" version="26.0.4">
  <diagram name="Страница — 1" id="7yXUNGsf0TxUGYd6zp4K">
    <mxGraphModel dx="2637" dy="991" grid="1" gridSize="10" guides="1" tooltips="1" connect="1" arrows="1" fold="1" page="1" pageScale="1" pageWidth="827" pageHeight="1169" math="0" shadow="0">
      <root>
        <mxCell id="0" />
        <mxCell id="1" parent="0" />
        <mxCell id="IeFzl1QiaCpx4XrtQ_5s-1" style="edgeStyle=orthogonalEdgeStyle;rounded=0;orthogonalLoop=1;jettySize=auto;html=1;entryX=0;entryY=0.5;entryDx=0;entryDy=0;" edge="1" parent="1" source="Tx1Afm7tfzdxfSKQ3itU-7" target="Tx1Afm7tfzdxfSKQ3itU-25">
          <mxGeometry relative="1" as="geometry" />
        </mxCell>
        <mxCell id="IeFzl1QiaCpx4XrtQ_5s-2" value="Оформляют договора&lt;br&gt;продают в сети отделений" style="edgeLabel;html=1;align=center;verticalAlign=middle;resizable=0;points=[];" vertex="1" connectable="0" parent="IeFzl1QiaCpx4XrtQ_5s-1">
          <mxGeometry x="0.1385" y="1" relative="1" as="geometry">
            <mxPoint as="offset" />
          </mxGeometry>
        </mxCell>
        <mxCell id="Tx1Afm7tfzdxfSKQ3itU-7" value="Управление обслуживанием в сети отделений" style="rounded=0;whiteSpace=wrap;html=1;fillColor=#B3B3B3;strokeColor=#FFFFFF;" parent="1" vertex="1">
          <mxGeometry x="-340" y="160" width="120" height="60" as="geometry" />
        </mxCell>
        <mxCell id="IeFzl1QiaCpx4XrtQ_5s-26" style="edgeStyle=orthogonalEdgeStyle;rounded=0;orthogonalLoop=1;jettySize=auto;html=1;" edge="1" parent="1" source="Tx1Afm7tfzdxfSKQ3itU-8" target="Tx1Afm7tfzdxfSKQ3itU-25">
          <mxGeometry relative="1" as="geometry" />
        </mxCell>
        <mxCell id="IeFzl1QiaCpx4XrtQ_5s-27" value="Разрабатывает" style="edgeLabel;html=1;align=center;verticalAlign=middle;resizable=0;points=[];" vertex="1" connectable="0" parent="IeFzl1QiaCpx4XrtQ_5s-26">
          <mxGeometry x="0.0083" y="1" relative="1" as="geometry">
            <mxPoint as="offset" />
          </mxGeometry>
        </mxCell>
        <mxCell id="IeFzl1QiaCpx4XrtQ_5s-28" style="edgeStyle=orthogonalEdgeStyle;rounded=0;orthogonalLoop=1;jettySize=auto;html=1;" edge="1" parent="1" source="Tx1Afm7tfzdxfSKQ3itU-8" target="Tx1Afm7tfzdxfSKQ3itU-14">
          <mxGeometry relative="1" as="geometry" />
        </mxCell>
        <mxCell id="IeFzl1QiaCpx4XrtQ_5s-29" style="edgeStyle=orthogonalEdgeStyle;rounded=0;orthogonalLoop=1;jettySize=auto;html=1;" edge="1" parent="1" source="Tx1Afm7tfzdxfSKQ3itU-8" target="Tx1Afm7tfzdxfSKQ3itU-21">
          <mxGeometry relative="1" as="geometry" />
        </mxCell>
        <mxCell id="IeFzl1QiaCpx4XrtQ_5s-32" value="Разрабатывает" style="edgeLabel;html=1;align=center;verticalAlign=middle;resizable=0;points=[];" vertex="1" connectable="0" parent="IeFzl1QiaCpx4XrtQ_5s-29">
          <mxGeometry x="-0.3152" y="-4" relative="1" as="geometry">
            <mxPoint as="offset" />
          </mxGeometry>
        </mxCell>
        <mxCell id="IeFzl1QiaCpx4XrtQ_5s-30" style="edgeStyle=orthogonalEdgeStyle;rounded=0;orthogonalLoop=1;jettySize=auto;html=1;entryX=0.5;entryY=0;entryDx=0;entryDy=0;" edge="1" parent="1" source="Tx1Afm7tfzdxfSKQ3itU-8" target="Tx1Afm7tfzdxfSKQ3itU-20">
          <mxGeometry relative="1" as="geometry" />
        </mxCell>
        <mxCell id="IeFzl1QiaCpx4XrtQ_5s-33" value="Разрабатывает" style="edgeLabel;html=1;align=center;verticalAlign=middle;resizable=0;points=[];" vertex="1" connectable="0" parent="IeFzl1QiaCpx4XrtQ_5s-30">
          <mxGeometry x="-0.1187" y="-4" relative="1" as="geometry">
            <mxPoint as="offset" />
          </mxGeometry>
        </mxCell>
        <mxCell id="Tx1Afm7tfzdxfSKQ3itU-8" value="Управление IT" style="rounded=0;whiteSpace=wrap;html=1;fillColor=#B3B3B3;strokeColor=#FFFFFF;" parent="1" vertex="1">
          <mxGeometry x="591" y="250" width="120" height="60" as="geometry" />
        </mxCell>
        <mxCell id="IeFzl1QiaCpx4XrtQ_5s-18" style="edgeStyle=orthogonalEdgeStyle;rounded=0;orthogonalLoop=1;jettySize=auto;html=1;entryX=0;entryY=0.5;entryDx=0;entryDy=0;" edge="1" parent="1" source="Tx1Afm7tfzdxfSKQ3itU-9" target="Tx1Afm7tfzdxfSKQ3itU-25">
          <mxGeometry relative="1" as="geometry" />
        </mxCell>
        <mxCell id="IeFzl1QiaCpx4XrtQ_5s-19" value="Обслуживают депозитные процессы" style="edgeLabel;html=1;align=center;verticalAlign=middle;resizable=0;points=[];" vertex="1" connectable="0" parent="IeFzl1QiaCpx4XrtQ_5s-18">
          <mxGeometry x="-0.1548" y="2" relative="1" as="geometry">
            <mxPoint as="offset" />
          </mxGeometry>
        </mxCell>
        <mxCell id="Tx1Afm7tfzdxfSKQ3itU-9" value="Управление обслуживанием депозитных продуктов" style="rounded=0;whiteSpace=wrap;html=1;fillColor=#B3B3B3;strokeColor=#FFFFFF;" parent="1" vertex="1">
          <mxGeometry x="-340" y="270" width="120" height="60" as="geometry" />
        </mxCell>
        <mxCell id="IeFzl1QiaCpx4XrtQ_5s-20" style="edgeStyle=orthogonalEdgeStyle;rounded=0;orthogonalLoop=1;jettySize=auto;html=1;entryX=0;entryY=0.5;entryDx=0;entryDy=0;" edge="1" parent="1" source="Tx1Afm7tfzdxfSKQ3itU-10" target="Tx1Afm7tfzdxfSKQ3itU-25">
          <mxGeometry relative="1" as="geometry" />
        </mxCell>
        <mxCell id="IeFzl1QiaCpx4XrtQ_5s-21" value="Обслуживают кредитные процессы" style="edgeLabel;html=1;align=center;verticalAlign=middle;resizable=0;points=[];" vertex="1" connectable="0" parent="IeFzl1QiaCpx4XrtQ_5s-20">
          <mxGeometry x="-0.3487" relative="1" as="geometry">
            <mxPoint as="offset" />
          </mxGeometry>
        </mxCell>
        <mxCell id="Tx1Afm7tfzdxfSKQ3itU-10" value="Управление обслуживанием кредитных продуктов" style="rounded=0;whiteSpace=wrap;html=1;fillColor=#B3B3B3;strokeColor=#FFFFFF;" parent="1" vertex="1">
          <mxGeometry x="-340" y="350" width="120" height="60" as="geometry" />
        </mxCell>
        <mxCell id="IeFzl1QiaCpx4XrtQ_5s-9" style="edgeStyle=orthogonalEdgeStyle;rounded=0;orthogonalLoop=1;jettySize=auto;html=1;entryX=0;entryY=0.5;entryDx=0;entryDy=0;" edge="1" parent="1" source="Tx1Afm7tfzdxfSKQ3itU-11" target="Tx1Afm7tfzdxfSKQ3itU-16">
          <mxGeometry relative="1" as="geometry" />
        </mxCell>
        <mxCell id="IeFzl1QiaCpx4XrtQ_5s-10" value="Обрабатывают входящие звонки" style="edgeLabel;html=1;align=center;verticalAlign=middle;resizable=0;points=[];" vertex="1" connectable="0" parent="IeFzl1QiaCpx4XrtQ_5s-9">
          <mxGeometry x="-0.0615" y="2" relative="1" as="geometry">
            <mxPoint as="offset" />
          </mxGeometry>
        </mxCell>
        <mxCell id="Tx1Afm7tfzdxfSKQ3itU-11" value="Кол-центр банка «Стандарт»" style="rounded=0;whiteSpace=wrap;html=1;fillColor=#B3B3B3;strokeColor=#FFFFFF;" parent="1" vertex="1">
          <mxGeometry x="-413" y="640" width="120" height="60" as="geometry" />
        </mxCell>
        <mxCell id="IeFzl1QiaCpx4XrtQ_5s-11" style="edgeStyle=orthogonalEdgeStyle;rounded=0;orthogonalLoop=1;jettySize=auto;html=1;entryX=0;entryY=0.5;entryDx=0;entryDy=0;" edge="1" parent="1" source="Tx1Afm7tfzdxfSKQ3itU-12" target="Tx1Afm7tfzdxfSKQ3itU-19">
          <mxGeometry relative="1" as="geometry" />
        </mxCell>
        <mxCell id="IeFzl1QiaCpx4XrtQ_5s-12" value="Обрабатывают входящие звонки" style="edgeLabel;html=1;align=center;verticalAlign=middle;resizable=0;points=[];" vertex="1" connectable="0" parent="IeFzl1QiaCpx4XrtQ_5s-11">
          <mxGeometry x="0.0087" y="-4" relative="1" as="geometry">
            <mxPoint as="offset" />
          </mxGeometry>
        </mxCell>
        <mxCell id="Tx1Afm7tfzdxfSKQ3itU-12" value="Партнёрский кол-центр" style="rounded=0;whiteSpace=wrap;html=1;fillColor=#B3B3B3;strokeColor=#FFFFFF;" parent="1" vertex="1">
          <mxGeometry x="-410" y="470" width="120" height="60" as="geometry" />
        </mxCell>
        <mxCell id="IeFzl1QiaCpx4XrtQ_5s-3" style="edgeStyle=orthogonalEdgeStyle;rounded=0;orthogonalLoop=1;jettySize=auto;html=1;" edge="1" parent="1" source="Tx1Afm7tfzdxfSKQ3itU-13" target="Tx1Afm7tfzdxfSKQ3itU-21">
          <mxGeometry relative="1" as="geometry" />
        </mxCell>
        <mxCell id="IeFzl1QiaCpx4XrtQ_5s-4" value="Получают информацию" style="edgeLabel;html=1;align=center;verticalAlign=middle;resizable=0;points=[];" vertex="1" connectable="0" parent="IeFzl1QiaCpx4XrtQ_5s-3">
          <mxGeometry x="0.04" y="3" relative="1" as="geometry">
            <mxPoint as="offset" />
          </mxGeometry>
        </mxCell>
        <mxCell id="IeFzl1QiaCpx4XrtQ_5s-5" style="edgeStyle=orthogonalEdgeStyle;rounded=0;orthogonalLoop=1;jettySize=auto;html=1;entryX=0;entryY=0.5;entryDx=0;entryDy=0;" edge="1" parent="1" source="Tx1Afm7tfzdxfSKQ3itU-13" target="Tx1Afm7tfzdxfSKQ3itU-14">
          <mxGeometry relative="1" as="geometry" />
        </mxCell>
        <mxCell id="IeFzl1QiaCpx4XrtQ_5s-6" value="Управляют счетами" style="edgeLabel;html=1;align=center;verticalAlign=middle;resizable=0;points=[];" vertex="1" connectable="0" parent="IeFzl1QiaCpx4XrtQ_5s-5">
          <mxGeometry x="-0.0194" relative="1" as="geometry">
            <mxPoint as="offset" />
          </mxGeometry>
        </mxCell>
        <mxCell id="IeFzl1QiaCpx4XrtQ_5s-7" style="edgeStyle=orthogonalEdgeStyle;rounded=0;orthogonalLoop=1;jettySize=auto;html=1;entryX=0;entryY=0.5;entryDx=0;entryDy=0;" edge="1" parent="1" source="Tx1Afm7tfzdxfSKQ3itU-13" target="Tx1Afm7tfzdxfSKQ3itU-16">
          <mxGeometry relative="1" as="geometry" />
        </mxCell>
        <mxCell id="IeFzl1QiaCpx4XrtQ_5s-8" value="Звонят" style="edgeLabel;html=1;align=center;verticalAlign=middle;resizable=0;points=[];" vertex="1" connectable="0" parent="IeFzl1QiaCpx4XrtQ_5s-7">
          <mxGeometry x="0.2091" y="-2" relative="1" as="geometry">
            <mxPoint as="offset" />
          </mxGeometry>
        </mxCell>
        <mxCell id="Tx1Afm7tfzdxfSKQ3itU-13" value="Пользователи" style="rounded=0;whiteSpace=wrap;html=1;fillColor=#B3B3B3;strokeColor=#FFFFFF;" parent="1" vertex="1">
          <mxGeometry x="-310" y="740" width="120" height="60" as="geometry" />
        </mxCell>
        <mxCell id="IeFzl1QiaCpx4XrtQ_5s-13" value="Отправляет СМС" style="edgeStyle=orthogonalEdgeStyle;rounded=0;orthogonalLoop=1;jettySize=auto;html=1;" edge="1" parent="1" source="Tx1Afm7tfzdxfSKQ3itU-14" target="Tx1Afm7tfzdxfSKQ3itU-20">
          <mxGeometry relative="1" as="geometry" />
        </mxCell>
        <mxCell id="IeFzl1QiaCpx4XrtQ_5s-24" style="edgeStyle=orthogonalEdgeStyle;rounded=0;orthogonalLoop=1;jettySize=auto;html=1;entryX=1;entryY=0.5;entryDx=0;entryDy=0;" edge="1" parent="1" source="Tx1Afm7tfzdxfSKQ3itU-14" target="Tx1Afm7tfzdxfSKQ3itU-25">
          <mxGeometry relative="1" as="geometry" />
        </mxCell>
        <mxCell id="IeFzl1QiaCpx4XrtQ_5s-25" value="Взаимодействует" style="edgeLabel;html=1;align=center;verticalAlign=middle;resizable=0;points=[];" vertex="1" connectable="0" parent="IeFzl1QiaCpx4XrtQ_5s-24">
          <mxGeometry x="0.0244" y="3" relative="1" as="geometry">
            <mxPoint x="1" as="offset" />
          </mxGeometry>
        </mxCell>
        <mxCell id="Tx1Afm7tfzdxfSKQ3itU-14" value="Интернет-банк" style="rounded=0;whiteSpace=wrap;html=1;fillColor=#7EA6E0;strokeColor=#FFFFFF;" parent="1" vertex="1">
          <mxGeometry x="341" y="630" width="120" height="60" as="geometry" />
        </mxCell>
        <mxCell id="IeFzl1QiaCpx4XrtQ_5s-22" style="edgeStyle=orthogonalEdgeStyle;rounded=0;orthogonalLoop=1;jettySize=auto;html=1;" edge="1" parent="1" source="Tx1Afm7tfzdxfSKQ3itU-16" target="Tx1Afm7tfzdxfSKQ3itU-19">
          <mxGeometry relative="1" as="geometry" />
        </mxCell>
        <mxCell id="IeFzl1QiaCpx4XrtQ_5s-23" value="Переадресует звонки" style="edgeLabel;html=1;align=center;verticalAlign=middle;resizable=0;points=[];" vertex="1" connectable="0" parent="IeFzl1QiaCpx4XrtQ_5s-22">
          <mxGeometry x="-0.1667" relative="1" as="geometry">
            <mxPoint as="offset" />
          </mxGeometry>
        </mxCell>
        <mxCell id="Tx1Afm7tfzdxfSKQ3itU-16" value="Система кол-центра" style="rounded=0;whiteSpace=wrap;html=1;fillColor=#7EA6E0;strokeColor=#FFFFFF;" parent="1" vertex="1">
          <mxGeometry x="110" y="510" width="120" height="60" as="geometry" />
        </mxCell>
        <mxCell id="IeFzl1QiaCpx4XrtQ_5s-16" style="edgeStyle=orthogonalEdgeStyle;rounded=0;orthogonalLoop=1;jettySize=auto;html=1;" edge="1" parent="1" source="Tx1Afm7tfzdxfSKQ3itU-17" target="Tx1Afm7tfzdxfSKQ3itU-13">
          <mxGeometry relative="1" as="geometry" />
        </mxCell>
        <mxCell id="IeFzl1QiaCpx4XrtQ_5s-17" value="Отправляет СМС" style="edgeLabel;html=1;align=center;verticalAlign=middle;resizable=0;points=[];" vertex="1" connectable="0" parent="IeFzl1QiaCpx4XrtQ_5s-16">
          <mxGeometry x="-0.2361" y="-1" relative="1" as="geometry">
            <mxPoint as="offset" />
          </mxGeometry>
        </mxCell>
        <mxCell id="Tx1Afm7tfzdxfSKQ3itU-17" value="Телеком-оператор" style="rounded=0;whiteSpace=wrap;html=1;fillColor=#7EA6E0;strokeColor=#FFFFFF;" parent="1" vertex="1">
          <mxGeometry x="591" y="880" width="120" height="60" as="geometry" />
        </mxCell>
        <mxCell id="Tx1Afm7tfzdxfSKQ3itU-19" value="Система партнёрского кол-центра" style="rounded=0;whiteSpace=wrap;html=1;fillColor=#7EA6E0;strokeColor=#FFFFFF;" parent="1" vertex="1">
          <mxGeometry x="110" y="390" width="120" height="60" as="geometry" />
        </mxCell>
        <mxCell id="IeFzl1QiaCpx4XrtQ_5s-14" style="edgeStyle=orthogonalEdgeStyle;rounded=0;orthogonalLoop=1;jettySize=auto;html=1;" edge="1" parent="1" source="Tx1Afm7tfzdxfSKQ3itU-20" target="Tx1Afm7tfzdxfSKQ3itU-17">
          <mxGeometry relative="1" as="geometry" />
        </mxCell>
        <mxCell id="IeFzl1QiaCpx4XrtQ_5s-15" value="Интегрируется" style="edgeLabel;html=1;align=center;verticalAlign=middle;resizable=0;points=[];" vertex="1" connectable="0" parent="IeFzl1QiaCpx4XrtQ_5s-14">
          <mxGeometry x="0.1667" y="-4" relative="1" as="geometry">
            <mxPoint as="offset" />
          </mxGeometry>
        </mxCell>
        <mxCell id="Tx1Afm7tfzdxfSKQ3itU-20" value="СМС-шлюз телеком-оператора" style="rounded=0;whiteSpace=wrap;html=1;fillColor=#7EA6E0;strokeColor=#FFFFFF;" parent="1" vertex="1">
          <mxGeometry x="591" y="630" width="120" height="60" as="geometry" />
        </mxCell>
        <mxCell id="Tx1Afm7tfzdxfSKQ3itU-21" value="Сайт" style="rounded=0;whiteSpace=wrap;html=1;fillColor=#7EA6E0;strokeColor=#FFFFFF;" parent="1" vertex="1">
          <mxGeometry x="414" y="750" width="120" height="60" as="geometry" />
        </mxCell>
        <mxCell id="Tx1Afm7tfzdxfSKQ3itU-25" value="Автоматизированная банковская система" style="rounded=0;whiteSpace=wrap;html=1;fillColor=#7EA6E0;strokeColor=#FFFFFF;" parent="1" vertex="1">
          <mxGeometry x="110" y="250" width="120" height="60" as="geometry" />
        </mxCell>
      </root>
    </mxGraphModel>
  </diagram>
</mxfile>
